<?xml version="1.0" encoding="UTF-8"?>
<svg xmlns="http://www.w3.org/2000/svg" width="1200" height="1200" viewBox="250 100 700 700" version="1.1">
 <title>МИТ — standalone hexagon logo</title>
 <defs>
 <linearGradient id="g_top_left" x1="350" y1="170" x2="650" y2="470" gradientUnits="userSpaceOnUse">
 <stop offset="0" stop-color="#16d4df"/><stop offset="0.55" stop-color="#0a9eb0"/><stop offset="1" stop-color="#006877"/>
 </linearGradient>
 <linearGradient id="g_top_right" x1="590" y1="150" x2="860" y2="430" gradientUnits="userSpaceOnUse">
 <stop offset="0" stop-color="#10bcc9"/><stop offset="0.45" stop-color="#26dfe8"/><stop offset="1" stop-color="#087b96"/>
 </linearGradient>
 <linearGradient id="g_right" x1="720" y1="300" x2="890" y2="600" gradientUnits="userSpaceOnUse">
 <stop offset="0" stop-color="#15b8ff"/><stop offset="0.55" stop-color="#1549f2"/><stop offset="1" stop-color="#6241ff"/>
 </linearGradient>
 <linearGradient id="g_bottom_right" x1="870" y1="555" x2="575" y2="745" gradientUnits="userSpaceOnUse">
 <stop offset="0" stop-color="#8a64ff"/><stop offset="0.45" stop-color="#2d72ff"/><stop offset="1" stop-color="#0752ce"/>
 </linearGradient>
 <linearGradient id="g_bottom_left" x1="610" y1="730" x2="340" y2="570" gradientUnits="userSpaceOnUse">
 <stop offset="0" stop-color="#0b4cae"/><stop offset="0.45" stop-color="#087da0"/><stop offset="1" stop-color="#1fd4df"/>
 </linearGradient>
 <linearGradient id="g_left" x1="340" y1="310" x2="500" y2="600" gradientUnits="userSpaceOnUse">
 <stop offset="0" stop-color="#006575"/><stop offset="0.5" stop-color="#0d9ea9"/><stop offset="1" stop-color="#20c8d0"/>
 </linearGradient>
 <linearGradient id="shade_dark" x1="0" y1="0" x2="1" y2="1"><stop offset="0" stop-color="#002d43"/><stop offset="1" stop-color="#004b62"/></linearGradient>
 <linearGradient id="shade_mid" x1="0" y1="0" x2="1" y2="1"><stop offset="0" stop-color="#066f80"/><stop offset="1" stop-color="#032e49"/></linearGradient>
 <linearGradient id="shade_light" x1="0" y1="0" x2="1" y2="1"><stop offset="0" stop-color="#5cf5f3"/><stop offset="1" stop-color="#0a9eb0"/></linearGradient>
 <linearGradient id="shade_blue_dark" x1="0" y1="0" x2="1" y2="1"><stop offset="0" stop-color="#004eae"/><stop offset="1" stop-color="#062c78"/></linearGradient>
 <linearGradient id="shade_violet" x1="0" y1="0" x2="1" y2="1"><stop offset="0" stop-color="#9a76ff"/><stop offset="1" stop-color="#284fe8"/></linearGradient>
 </defs>

 <g id="emblem">
 <path d="M 342,305 L 600,155 L 600,350 L 492,412 Z" fill="url(#g_top_left)"/>
 <path d="M 600,155 L 858,305 L 708,412 L 600,350 Z" fill="url(#g_top_right)"/>
 <path d="M 858,305 L 858,595 L 708,538 L 708,412 Z" fill="url(#g_right)"/>
 <path d="M 858,595 L 600,745 L 600,600 L 708,538 Z" fill="url(#g_bottom_right)"/>
 <path d="M 600,745 L 342,595 L 492,538 L 600,600 Z" fill="url(#g_bottom_left)"/>
 <path d="M 342,595 L 342,305 L 492,412 L 492,538 Z" fill="url(#g_left)"/>
 <path d="M 342,305 L 500,245 L 492,412 Z" fill="url(#shade_dark)" opacity="0.32"/>
 <path d="M 500,245 L 600,155 L 600,350 Z" fill="url(#shade_light)" opacity="0.25"/>
 <path d="M 600,155 L 720,225 L 708,412 L 600,350 Z" fill="url(#shade_mid)" opacity="0.22"/>
 <path d="M 720,225 L 858,305 L 708,412 Z" fill="url(#shade_light)" opacity="0.18"/>
 <path d="M 858,305 L 858,450 L 708,538 L 708,412 Z" fill="url(#shade_blue_dark)" opacity="0.22"/>
 <path d="M 858,450 L 858,595 L 708,538 Z" fill="url(#shade_violet)" opacity="0.18"/>
 <path d="M 858,595 L 730,665 L 600,600 L 708,538 Z" fill="url(#shade_violet)" opacity="0.28"/>
 <path d="M 730,665 L 600,745 L 600,600 Z" fill="url(#shade_blue_dark)" opacity="0.2"/>
 <path d="M 600,745 L 470,670 L 492,538 L 600,600 Z" fill="url(#shade_dark)" opacity="0.22"/>
 <path d="M 470,670 L 342,595 L 492,538 Z" fill="url(#shade_light)" opacity="0.2"/>
 <path d="M 342,595 L 342,450 L 492,412 L 492,538 Z" fill="url(#shade_mid)" opacity="0.26"/>
 <path d="M 342,450 L 342,305 L 492,412 Z" fill="url(#shade_dark)" opacity="0.22"/>
 <path d="M 600,350 L 708,412 L 708,538 L 600,600 L 492,538 L 492,412 Z" fill="#ffffff"/>
 <path d="M342,305 L492,412 M858,305 L708,412 M858,595 L708,538 M342,595 L492,538 M600,155 L600,350 M600,745 L600,600" stroke="#ffffff" stroke-opacity="0.18" stroke-width="2" fill="none"/>
 </g>

</svg>