<?xml version="1.0" encoding="UTF-8"?>
<svg xmlns="http://www.w3.org/2000/svg" width="1200" height="1200" viewBox="0 0 1200 1200" version="1.1">
 <title>МИТ ассистент — vector logo</title>
 <defs>
 <linearGradient id="g_top_left" x1="350" y1="170" x2="650" y2="470" gradientUnits="userSpaceOnUse">
 <stop offset="0" stop-color="#16d4df"/><stop offset="0.55" stop-color="#0a9eb0"/><stop offset="1" stop-color="#006877"/>
 </linearGradient>
 <linearGradient id="g_top_right" x1="590" y1="150" x2="860" y2="430" gradientUnits="userSpaceOnUse">
 <stop offset="0" stop-color="#10bcc9"/><stop offset="0.45" stop-color="#26dfe8"/><stop offset="1" stop-color="#087b96"/>
 </linearGradient>
 <linearGradient id="g_right" x1="720" y1="300" x2="890" y2="600" gradientUnits="userSpaceOnUse">
 <stop offset="0" stop-color="#15b8ff"/><stop offset="0.55" stop-color="#1549f2"/><stop offset="1" stop-color="#6241ff"/>
 </linearGradient>
 <linearGradient id="g_bottom_right" x1="870" y1="555" x2="575" y2="745" gradientUnits="userSpaceOnUse">
 <stop offset="0" stop-color="#8a64ff"/><stop offset="0.45" stop-color="#2d72ff"/><stop offset="1" stop-color="#0752ce"/>
 </linearGradient>
 <linearGradient id="g_bottom_left" x1="610" y1="730" x2="340" y2="570" gradientUnits="userSpaceOnUse">
 <stop offset="0" stop-color="#0b4cae"/><stop offset="0.45" stop-color="#087da0"/><stop offset="1" stop-color="#1fd4df"/>
 </linearGradient>
 <linearGradient id="g_left" x1="340" y1="310" x2="500" y2="600" gradientUnits="userSpaceOnUse">
 <stop offset="0" stop-color="#006575"/><stop offset="0.5" stop-color="#0d9ea9"/><stop offset="1" stop-color="#20c8d0"/>
 </linearGradient>
 <linearGradient id="shade_dark" x1="0" y1="0" x2="1" y2="1"><stop offset="0" stop-color="#002d43"/><stop offset="1" stop-color="#004b62"/></linearGradient>
 <linearGradient id="shade_mid" x1="0" y1="0" x2="1" y2="1"><stop offset="0" stop-color="#066f80"/><stop offset="1" stop-color="#032e49"/></linearGradient>
 <linearGradient id="shade_light" x1="0" y1="0" x2="1" y2="1"><stop offset="0" stop-color="#5cf5f3"/><stop offset="1" stop-color="#0a9eb0"/></linearGradient>
 <linearGradient id="shade_blue_dark" x1="0" y1="0" x2="1" y2="1"><stop offset="0" stop-color="#004eae"/><stop offset="1" stop-color="#062c78"/></linearGradient>
 <linearGradient id="shade_violet" x1="0" y1="0" x2="1" y2="1"><stop offset="0" stop-color="#9a76ff"/><stop offset="1" stop-color="#284fe8"/></linearGradient>
 <linearGradient id="textGrad" x1="330" y1="760" x2="875" y2="1020" gradientUnits="userSpaceOnUse">
 <stop offset="0" stop-color="#03adb9"/><stop offset="0.5" stop-color="#04869f"/><stop offset="1" stop-color="#006f93"/>
 </linearGradient>
 </defs>

 <g id="emblem">
 <path d="M 342,305 L 600,155 L 600,350 L 492,412 Z" fill="url(#g_top_left)"/>
 <path d="M 600,155 L 858,305 L 708,412 L 600,350 Z" fill="url(#g_top_right)"/>
 <path d="M 858,305 L 858,595 L 708,538 L 708,412 Z" fill="url(#g_right)"/>
 <path d="M 858,595 L 600,745 L 600,600 L 708,538 Z" fill="url(#g_bottom_right)"/>
 <path d="M 600,745 L 342,595 L 492,538 L 600,600 Z" fill="url(#g_bottom_left)"/>
 <path d="M 342,595 L 342,305 L 492,412 L 492,538 Z" fill="url(#g_left)"/>
 <path d="M 342,305 L 500,245 L 492,412 Z" fill="url(#shade_dark)" opacity="0.32"/>
 <path d="M 500,245 L 600,155 L 600,350 Z" fill="url(#shade_light)" opacity="0.25"/>
 <path d="M 600,155 L 720,225 L 708,412 L 600,350 Z" fill="url(#shade_mid)" opacity="0.22"/>
 <path d="M 720,225 L 858,305 L 708,412 Z" fill="url(#shade_light)" opacity="0.18"/>
 <path d="M 858,305 L 858,450 L 708,538 L 708,412 Z" fill="url(#shade_blue_dark)" opacity="0.22"/>
 <path d="M 858,450 L 858,595 L 708,538 Z" fill="url(#shade_violet)" opacity="0.18"/>
 <path d="M 858,595 L 730,665 L 600,600 L 708,538 Z" fill="url(#shade_violet)" opacity="0.28"/>
 <path d="M 730,665 L 600,745 L 600,600 Z" fill="url(#shade_blue_dark)" opacity="0.2"/>
 <path d="M 600,745 L 470,670 L 492,538 L 600,600 Z" fill="url(#shade_dark)" opacity="0.22"/>
 <path d="M 470,670 L 342,595 L 492,538 Z" fill="url(#shade_light)" opacity="0.2"/>
 <path d="M 342,595 L 342,450 L 492,412 L 492,538 Z" fill="url(#shade_mid)" opacity="0.26"/>
 <path d="M 342,450 L 342,305 L 492,412 Z" fill="url(#shade_dark)" opacity="0.22"/>
 <path d="M 600,350 L 708,412 L 708,538 L 600,600 L 492,538 L 492,412 Z" fill="#ffffff"/>
 <path d="M342,305 L492,412 M858,305 L708,412 M858,595 L708,538 M342,595 L492,538 M600,155 L600,350 M600,745 L600,600" stroke="#ffffff" stroke-opacity="0.18" stroke-width="2" fill="none"/>
 </g>

 <g id="wordmark" fill="url(#textGrad)">
 <path id="mit_text_curves" d="M 342.500 760.000 L 393.474 760.000 L 428.833 843.136 L 464.425 760.000 L 515.299 760.000 L 515.299 915.352 L 477.443 915.352 L 477.443 801.718 L 441.651 885.487 L 416.247 885.487 L 380.456 801.718 L 380.456 915.352 L 342.500 915.352 L 342.500 760.000 Z M 693.749 760.000 L 693.749 915.352 L 655.760 915.352 L 655.760 808.810 L 599.259 915.352 L 554.545 915.352 L 554.545 760.000 L 592.500 760.000 L 592.500 866.543 L 649.001 760.000 L 693.749 760.000 Z M 714.333 760.000 L 857.500 760.000 L 857.500 790.298 L 805.993 790.298 L 805.993 915.352 L 765.940 915.352 L 765.940 790.298 L 714.333 790.298 L 714.333 760.000 Z"/>
 <path id="assistant_text_curves" d="M 372.437 957.664 Q 361.871 957.664 357.794 960.074 Q 353.716 962.485 353.716 968.321 Q 353.716 972.959 356.778 975.688 Q 359.840 978.401 365.085 978.401 Q 372.346 978.401 376.727 973.262 Q 381.108 968.124 381.108 959.605 L 381.108 957.664 L 372.437 957.664 Z M 389.824 954.057 L 389.824 984.328 L 381.108 984.328 L 381.108 976.279 Q 378.121 981.099 373.665 983.403 Q 369.208 985.707 362.766 985.707 Q 354.626 985.707 349.805 981.130 Q 345.000 976.552 345.000 968.882 Q 345.000 959.938 350.988 955.390 Q 356.990 950.843 368.875 950.843 L 381.108 950.843 L 381.108 949.979 Q 381.108 943.961 377.151 940.672 Q 373.195 937.382 366.040 937.382 Q 361.492 937.382 357.172 938.474 Q 352.867 939.565 348.896 941.748 L 348.896 933.684 Q 353.671 931.834 358.173 930.925 Q 362.675 930.000 366.934 930.000 Q 378.455 930.000 384.139 935.972 Q 389.824 941.930 389.824 954.057 Z M 445.954 933.305 L 445.954 941.460 Q 442.255 939.413 438.541 938.398 Q 434.827 937.382 431.038 937.382 Q 422.549 937.382 417.850 942.763 Q 413.166 948.130 413.166 957.846 Q 413.166 967.563 417.850 972.944 Q 422.549 978.310 431.038 978.310 Q 434.827 978.310 438.541 977.295 Q 442.255 976.279 445.954 974.232 L 445.954 982.297 Q 442.300 983.995 438.390 984.843 Q 434.494 985.707 430.083 985.707 Q 418.092 985.707 411.029 978.174 Q 403.980 970.640 403.980 957.846 Q 403.980 944.870 411.104 937.443 Q 418.244 930.000 430.659 930.000 Q 434.676 930.000 438.511 930.834 Q 442.346 931.652 445.954 933.305 Z M 499.293 933.305 L 499.293 941.460 Q 495.594 939.413 491.880 938.398 Q 488.166 937.382 484.377 937.382 Q 475.888 937.382 471.189 942.763 Q 466.505 948.130 466.505 957.846 Q 466.505 967.563 471.189 972.944 Q 475.888 978.310 484.377 978.310 Q 488.166 978.310 491.880 977.295 Q 495.594 976.279 499.293 974.232 L 499.293 982.297 Q 495.639 983.995 491.729 984.843 Q 487.833 985.707 483.422 985.707 Q 471.431 985.707 464.367 978.174 Q 457.319 970.640 457.319 957.846 Q 457.319 944.870 464.443 937.443 Q 471.583 930.000 483.998 930.000 Q 488.015 930.000 491.850 930.834 Q 495.685 931.652 499.293 933.305 Z M 559.544 931.273 L 559.544 984.328 L 550.873 984.328 L 550.873 941.748 L 525.301 984.328 L 514.114 984.328 L 514.114 931.273 L 522.785 931.273 L 522.785 973.763 L 548.327 931.273 L 559.544 931.273 Z M 615.681 933.305 L 615.681 941.460 Q 611.983 939.413 608.269 938.398 Q 604.555 937.382 600.766 937.382 Q 592.277 937.382 587.578 942.763 Q 582.894 948.130 582.894 957.846 Q 582.894 967.563 587.578 972.944 Q 592.277 978.310 600.766 978.310 Q 604.555 978.310 608.269 977.295 Q 611.983 976.279 615.681 974.232 L 615.681 982.297 Q 612.028 983.995 608.117 984.843 Q 604.222 985.707 599.811 985.707 Q 587.820 985.707 580.756 978.174 Q 573.708 970.640 573.708 957.846 Q 573.708 944.870 580.832 937.443 Q 587.972 930.000 600.387 930.000 Q 604.404 930.000 608.239 930.834 Q 612.074 931.652 615.681 933.305 Z M 624.545 931.273 L 675.372 931.273 L 675.372 938.231 L 654.241 938.231 L 654.241 984.328 L 645.661 984.328 L 645.661 938.231 L 624.545 938.231 L 624.545 931.273 Z M 732.733 955.618 L 732.733 959.877 L 692.654 959.877 Q 693.230 968.882 698.081 973.596 Q 702.932 978.310 711.603 978.310 Q 716.620 978.310 721.334 977.082 Q 726.049 975.854 730.702 973.384 L 730.702 981.630 Q 726.003 983.616 721.077 984.662 Q 716.150 985.707 711.087 985.707 Q 698.384 985.707 690.972 978.325 Q 683.559 970.928 683.559 958.316 Q 683.559 945.295 690.593 937.655 Q 697.626 930.000 709.571 930.000 Q 720.273 930.000 726.503 936.897 Q 732.733 943.779 732.733 955.618 Z M 724.017 953.056 Q 723.926 945.916 720.015 941.657 Q 716.105 937.382 709.662 937.382 Q 702.371 937.382 697.990 941.505 Q 693.609 945.628 692.942 953.117 L 724.017 953.056 Z M 746.702 931.273 L 755.464 931.273 L 755.464 952.920 L 783.749 952.920 L 783.749 931.273 L 792.511 931.273 L 792.511 984.328 L 783.749 984.328 L 783.749 959.877 L 755.464 959.877 L 755.464 984.328 L 746.702 984.328 L 746.702 931.273 Z M 804.174 931.273 L 855.000 931.273 L 855.000 938.231 L 833.869 938.231 L 833.869 984.328 L 825.289 984.328 L 825.289 938.231 L 804.174 938.231 L 804.174 931.273 Z" opacity="0.95"/>
 </g>
</svg>